:SAMPLES-PER-SECOND 30
:FULLY-SPECIFIED
:DEGREES
986
root  47.405 38.0202 2.58104 163.637 -82.2749 -166.413
RightUpLeg  -17.162 -8.65137 2.43798
RightLeg  22.248 3.55931 1.49732
RightFoot  -3.26748 0.091103 -1.61998
RightToes  -1.74624e-010 0 -3.6325e-017
Spine  5.11293 -3.02212 8.4853
Spine1  4.11921 -2.32942 0.35334
HEad  -7.30358 -40.8614 -2.23927
LeftShoulder1  -0.750101 5.42153 -32.941
LeftArm  1.95327 10.0039 -41.7601
LeftForeArm  23.4926 -23.4462 -3.8264
LeftHand  -0.0279438 5.5505 0.274401
RightShoulder  -1.19827 -6.68739 31.1157
RightArm  17.5282 -14.8794 41.906
RightForeArm  12.9111 15.8682 5.26924
RightHand  -0.0823043 4.02171 -1.28488
LeftUpLeg  5.76146 4.0765 5.97007
LeftLeg  40.095 3.49187 3.55705
LeftFoot  -2.91388 0.543918 -7.75334
LeftToes  2.27646e-009 -8.13696e-011 -1.44715e-011
987
root  46.4642 38.0867 2.2902 159.732 -82.4518 -162.498
RightUpLeg  -15.5675 -9.36749 2.79932
RightLeg  22.673 3.83676 1.85384
RightFoot  -5.2155 0.0567894 -1.70904
RightToes  -1.74624e-010 0 -3.6325e-017
Spine  4.5286 -2.99401 9.77527
Spine1  4.80307 -2.09181 0.271045
HEad  -7.09653 -41.5658 -2.70073
LeftShoulder1  -0.686129 5.263 -32.8002
LeftArm  1.73957 10.3877 -42.3554
LeftForeArm  25.3102 -22.529 -3.71308
LeftHand  -0.0265662 5.47828 -0.307699
RightShoulder  -1.12574 -6.53513 30.6067
RightArm  18.7467 -13.8108 41.8913
RightForeArm  9.46062 18.6496 4.74617
RightHand  -0.119456 4.4344 -1.69497
LeftUpLeg  0.848686 3.93915 6.63109
LeftLeg  48.3164 3.11235 4.10237
LeftFoot  3.55988 0.396578 -2.96527
LeftToes  2.27646e-009 -8.13696e-011 -1.44715e-011
988
root  45.5685 38.2001 1.99225 157.948 -82.5219 -161.23
RightUpLeg  -13.1965 -9.1883 2.74348
RightLeg  22.5034 3.6555 1.94898
RightFoot  -6.82099 0.00550308 -1.30376
RightToes  -1.74624e-010 0 -3.6325e-017
Spine  5.78228 -2.96005 10.1673
Spine1  3.69581 -1.91402 0.651119
HEad  -6.7236 -42.6632 -3.40075
LeftShoulder1  -0.829366 5.57808 -33.8199
LeftArm  3.03893 10.8315 -41.4763
LeftForeArm  24.921 -22.3453 -3.77797
LeftHand  -0.0351807 6.04113 -0.76156
RightShoulder  -1.10809 -6.51056 30.3177
RightArm  19.1408 -12.5477 41.2412
RightForeArm  7.88533 21.3794 4.47023
RightHand  -0.175921 5.32173 -2.22146
LeftUpLeg  -2.86383 3.88929 7.03997
LeftLeg  53.7874 1.00074 1.95221
LeftFoot  1.57068 0.444581 -4.00821
LeftToes  2.27646e-009 -8.13696e-011 -1.44715e-011
989
root  44.6458 38.3387 1.70486 161.259 -82.1447 -164.947
RightUpLeg  -10.8115 -8.80314 2.2534
RightLeg  21.9445 3.93606 2.16043
RightFoot  -8.21312 -0.0294045 -0.984257
RightToes  -1.74624e-010 0 -3.6325e-017
Spine  6.15182 -2.59075 10.301
Spine1  3.44888 -1.33343 0.0644369
HEad  -6.69195 -43.4403 -3.31669
LeftShoulder1  -0.760129 5.41926 -33.5196
LeftArm  2.28101 11.7009 -41.5065
LeftForeArm  24.7729 -21.7416 -3.86211
LeftHand  -0.0204538 5.29295 -0.749585
RightShoulder  -1.17187 -6.6481 30.75
RightArm  17.2427 -10.9195 40.3921
RightForeArm  8.34009 23.7019 4.62229
RightHand  -0.265472 5.47014 -3.14332
LeftUpLeg  -6.17271 4.5458 6.67451
LeftLeg  56.2773 -0.515163 -0.30847
LeftFoot  0.876593 0.408877 -3.86231
LeftToes  2.27646e-009 -8.13696e-011 -1.44715e-011
990
root  43.7032 38.4666 1.46767 165.506 -81.9316 -169.183
RightUpLeg  -8.83223 -8.97981 1.52064
RightLeg  21.2903 4.51792 2.52184
RightFoot  -9.4764 -0.0480893 -0.955364
RightToes  -1.74624e-010 0 -3.6325e-017
Spine  6.08056 -2.33876 10.5059
Spine1  3.03255 -0.932905 -0.776388
HEad  -6.21953 -44.033 -3.86573
LeftShoulder1  -0.762674 5.44381 -33.1404
LeftArm  1.16321 12.9804 -41.4684
LeftForeArm  24.5147 -21.3969 -3.92273
LeftHand  -0.0302692 5.98381 -0.412627
RightShoulder  -1.17755 -6.68972 30.4529
RightArm  13.4336 -9.96183 40.1286
RightForeArm  11.38 26.0913 4.99688
RightHand  -0.293367 6.40707 -3.21893
LeftUpLeg  -9.6556 4.95237 5.6661
LeftLeg  56.3524 -1.1248 -1.31543
LeftFoot  -0.342295 0.342403 -3.55237
LeftToes  2.27646e-009 -8.13696e-011 -1.44715e-011
991
root  42.7813 38.5867 1.22128 168.316 -82.0233 -172.126
RightUpLeg  -6.47235 -9.1725 0.81941
RightLeg  20.2128 4.84054 2.76354
RightFoot  -10.7574 -0.070006 -0.595933
RightToes  -1.74624e-010 0 -3.6325e-017
Spine  6.38189 -2.30691 10.7004
Spine1  2.18721 -0.744648 -1.84567
HEad  -5.9373 -44.9357 -4.21435
LeftShoulder1  -0.753457 5.44393 -32.6252
LeftArm  0.124911 13.7268 -41.1941
LeftForeArm  24.874 -20.3114 -4.15446
LeftHand  -0.0356385 6.3669 -0.216641
RightShoulder  -1.15934 -6.66339 30.0826
RightArm  6.4524 -9.79654 39.6334
RightForeArm  18.8409 29.0738 5.27467
RightHand  -0.172632 6.62317 -2.00619
LeftUpLeg  -12.6386 4.89602 4.65459
LeftLeg  54.0888 -1.32245 -1.4894
LeftFoot  -1.91741 0.333524 -3.89285
LeftToes  2.27646e-009 -8.13696e-011 -1.44715e-011
992
root  41.8341 38.7198 0.979067 172.304 -81.8094 -176.338
RightUpLeg  -3.90155 -9.20839 -0.0207378
RightLeg  18.8474 5.59173 2.92744
RightFoot  -11.6597 -0.079968 -0.391321
RightToes  -1.74624e-010 0 -3.6325e-017
Spine  6.35986 -2.01963 9.48587
Spine1  1.80815 -0.771791 -1.15614
HEad  -5.22654 -45.2145 -5.37209
LeftShoulder1  -0.907709 5.78277 -33.6638
LeftArm  -0.371599 13.8102 -39.7577
LeftForeArm  25.3837 -19.0181 -4.53572
LeftHand  -0.0394172 6.54302 -1.00824
RightShoulder  -0.904224 -6.1307 27.9004
RightArm  -4.50198 -11.2055 39.9601
RightForeArm  28.5862 33.2089 5.72174
RightHand  -0.33287 7.99279 -3.2484
LeftUpLeg  -14.6988 5.25399 3.41642
LeftLeg  49.2156 -1.38804 -1.30522
LeftFoot  -2.84719 0.267325 -3.37296
LeftToes  2.27646e-009 -8.13696e-011 -1.44715e-011
993
root  40.9449 38.8274 0.764373 175.975 -81.1592 179.984
RightUpLeg  -1.67519 -9.2515 -0.716127
RightLeg  17.4075 6.52182 3.02137
RightFoot  -12.4468 -0.0860952 -0.184163
RightToes  -1.74624e-010 0 -3.6325e-017
Spine  6.76654 -1.5015 8.84852
Spine1  0.957642 -0.314405 -1.83628
HEad  -4.81744 -46.4293 -5.83475
LeftShoulder1  -0.810415 5.58855 -32.7004
LeftArm  -2.9039 14.3363 -40.0486
LeftForeArm  27.3784 -17.2367 -4.92602
LeftHand  -0.0561569 7.36904 -0.775875
RightShoulder  -0.976748 -6.398 27.1699
RightArm  -14.0673 -11.522 37.8144
RightForeArm  33.436 36.5002 6.27645
RightHand  -0.539066 10.2962 -4.38467
LeftUpLeg  -16.251 6.04034 2.27678
LeftLeg  42.1915 -1.24603 -0.826365
LeftFoot  -3.24656 0.244077 -3.17622
LeftToes  2.27646e-009 -8.13696e-011 -1.44715e-011
994
root  40.0185 38.9191 0.602062 177.65 -81.1647 178.346
RightUpLeg  0.870138 -9.36783 -1.32305
RightLeg  15.4588 6.79608 2.96938
RightFoot  -13.0618 -0.0902877 -0.122694
RightToes  -1.74624e-010 0 -3.6325e-017
Spine  6.42456 -1.29991 7.87412
Spine1  0.744198 -0.372308 -1.79056
HEad  -3.61297 -47.1225 -6.81734
LeftShoulder1  -0.722578 5.39973 -31.9724
LeftArm  -5.19969 15.1141 -40.2268
LeftForeArm  29.0296 -15.5991 -5.18962
LeftHand  -0.0684262 7.71998 -1.10714
RightShoulder  -0.846731 -6.19609 24.8144
RightArm  -22.4685 -10.9218 34.63
RightForeArm  34.4114 36.423 6.20598
RightHand  -0.720048 11.5931 -5.33251
LeftUpLeg  -17.0417 6.47737 1.21981
LeftLeg  33.2306 -1.00345 -0.367069
LeftFoot  -3.06553 0.252856 -3.23427
LeftToes  2.27646e-009 -8.13696e-011 -1.44715e-011
995
root  39.0687 38.9892 0.454769 178.306 -81.2638 177.694
RightUpLeg  3.57865 -9.28357 -1.69936
RightLeg  13.2783 6.86489 2.71032
RightFoot  -13.4045 -0.0927068 -0.1103
RightToes  -1.74624e-010 0 -3.6325e-017
Spine  6.54431 -1.08559 6.7272
Spine1  0.120792 -0.39858 -1.61882
HEad  -1.67527 -48.7657 -8.05088
LeftShoulder1  -0.688254 5.33525 -31.3885
LeftArm  -6.63589 15.6826 -40.0952
LeftForeArm  30.6383 -14.0578 -5.42827
LeftHand  -0.0326193 5.23159 -0.607964
RightShoulder  -0.753246 -6.0969 22.3558
RightArm  -30.3283 -9.30365 29.0262
RightForeArm  33.7935 33.3207 5.46845
RightHand  -0.71749 11.6397 -5.29185
LeftUpLeg  -16.874 6.82681 0.282543
LeftLeg  22.6236 -0.346559 0.197008
LeftFoot  -1.95909 0.316758 -3.71341
LeftToes  2.27646e-009 -8.13696e-011 -1.44715e-011
996
root  38.1029 39.0201 0.349408 177.853 -80.989 178.23
RightUpLeg  6.23568 -9.20167 -1.98512
RightLeg  11.0093 7.2398 2.52206
RightFoot  -13.7337 -0.0936953 -0.0333568
RightToes  -1.74624e-010 0 -3.6325e-017
Spine  6.42919 -0.847662 6.42692
Spine1  -0.082873 -0.122165 -2.572
HEad  -0.79205 -50.4142 -7.9612
LeftShoulder1  -0.518062 4.92797 -30.2432
LeftArm  -7.9915 16.4051 -40.0263
LeftForeArm  32.1577 -12.7325 -5.50238
LeftHand  -0.065795 6.73622 -2.2316
RightShoulder  -0.709801 -6.15941 19.8874
RightArm  -38.9557 -6.81259 22.3564
RightForeArm  31.1502 27.6926 4.30509
RightHand  -0.540456 11.6256 -4.10159
LeftUpLeg  -16.0952 5.99395 -0.0985205
LeftLeg  11.4919 1.65529 0.339366
LeftFoot  -0.922397 0.356266 -3.85917
LeftToes  2.27646e-009 -8.13696e-011 -1.44715e-011
997
root  37.0882 38.9879 0.248169 177.841 -80.4696 178.245
RightUpLeg  8.63937 -9.06678 -2.30702
RightLeg  9.50657 7.73394 2.20709
RightFoot  -14.4773 -0.0938974 0.145625
RightToes  -1.74624e-010 0 -3.6325e-017
Spine  6.2517 -0.892549 5.98966
Spine1  -0.180249 -0.0619818 -3.60273
HEad  -0.306857 -51.0914 -7.43909
LeftShoulder1  -0.44861 4.76113 -29.5266
LeftArm  -8.90207 17.3442 -39.1056
LeftForeArm  32.8878 -11.8117 -5.43493
LeftHand  -0.0594188 6.35577 -1.73627
RightShoulder  -0.612145 -6.0793 16.7705
RightArm  -45.9264 -3.45427 16.4629
RightForeArm  22.2521 21.0783 1.89905
RightHand  -0.70486 12.1265 -5.08048
LeftUpLeg  -15.3014 3.09415 0.29289
LeftLeg  2.3333 6.00437 -0.359472
LeftFoot  0.182434 0.325597 -3.23524
LeftToes  2.27646e-009 -8.13696e-011 -1.44715e-011
